<svg width="13" height="13" viewBox="0 0 13 13" fill="none" xmlns="http://www.w3.org/2000/svg">
<path d="M6.5 0.8125C7.03872 0.8125 7.55538 1.02651 7.93631 1.40744C8.31724 1.78837 8.53125 2.30503 8.53125 2.84375V3.25H4.46875V2.84375C4.46875 2.30503 4.68276 1.78837 5.06369 1.40744C5.44462 1.02651 5.96128 0.8125 6.5 0.8125ZM9.34375 3.25V2.84375C9.34375 2.08954 9.04414 1.36622 8.51083 0.832915C7.97753 0.299608 7.25421 0 6.5 0C5.74579 0 5.02247 0.299608 4.48917 0.832915C3.95586 1.36622 3.65625 2.08954 3.65625 2.84375V3.25H0.8125V11.375C0.8125 11.806 0.983705 12.2193 1.28845 12.524C1.5932 12.8288 2.00652 13 2.4375 13H10.5625C10.9935 13 11.4068 12.8288 11.7115 12.524C12.0163 12.2193 12.1875 11.806 12.1875 11.375V3.25H9.34375ZM1.625 4.0625H11.375V11.375C11.375 11.5905 11.2894 11.7972 11.137 11.9495C10.9847 12.1019 10.778 12.1875 10.5625 12.1875H2.4375C2.22201 12.1875 2.01535 12.1019 1.86298 11.9495C1.7106 11.7972 1.625 11.5905 1.625 11.375V4.0625Z" fill="#222222"/>
</svg>
